<svg width="64" height="64" viewBox="0 0 64 64" fill="none" xmlns="http://www.w3.org/2000/svg">
<rect width="64" height="64" rx="32" fill="#F3F4F6"/>
<path d="M35.6268 27.7203L29.9068 33.4537L27.7068 31.2537C27.5872 31.1141 27.4401 31.0007 27.2747 30.9207C27.1093 30.8407 26.9291 30.7957 26.7455 30.7886C26.5619 30.7815 26.3788 30.8124 26.2077 30.8795C26.0366 30.9465 25.8812 31.0482 25.7512 31.1781C25.6213 31.3081 25.5196 31.4635 25.4526 31.6346C25.3855 31.8057 25.3546 31.9888 25.3617 32.1724C25.3688 32.356 25.4138 32.5362 25.4938 32.7016C25.5738 32.867 25.6872 33.0141 25.8268 33.1337L28.9601 36.2803C29.0847 36.4039 29.2324 36.5017 29.3949 36.568C29.5573 36.6344 29.7313 36.668 29.9068 36.667C30.2565 36.6655 30.5917 36.5267 30.8401 36.2803L37.5068 29.6137C37.6317 29.4897 37.7309 29.3422 37.7986 29.1798C37.8663 29.0173 37.9012 28.843 37.9012 28.667C37.9012 28.491 37.8663 28.3167 37.7986 28.1542C37.7309 27.9917 37.6317 27.8443 37.5068 27.7203C37.2569 27.472 36.919 27.3326 36.5668 27.3326C36.2145 27.3326 35.8766 27.472 35.6268 27.7203ZM32.0001 18.667C29.363 18.667 26.7851 19.449 24.5925 20.9141C22.3998 22.3791 20.6909 24.4615 19.6817 26.8979C18.6725 29.3342 18.4085 32.0151 18.923 34.6015C19.4374 37.1879 20.7073 39.5637 22.572 41.4284C24.4367 43.2931 26.8125 44.563 29.3989 45.0775C31.9853 45.5919 34.6662 45.3279 37.1025 44.3187C39.5389 43.3096 41.6213 41.6006 43.0863 39.4079C44.5514 37.2153 45.3334 34.6374 45.3334 32.0003C45.3334 30.2494 44.9885 28.5156 44.3185 26.8979C43.6484 25.2802 42.6663 23.8103 41.4282 22.5722C40.1901 21.3341 38.7202 20.352 37.1025 19.6819C35.4849 19.0119 33.751 18.667 32.0001 18.667ZM32.0001 42.667C29.8904 42.667 27.8281 42.0414 26.074 40.8693C24.3199 39.6973 22.9527 38.0314 22.1454 36.0823C21.338 34.1332 21.1268 31.9885 21.5384 29.9194C21.95 27.8502 22.9659 25.9496 24.4576 24.4579C25.9494 22.9661 27.85 21.9502 29.9191 21.5386C31.9883 21.127 34.133 21.3383 36.082 22.1456C38.0311 22.9529 39.697 24.3201 40.8691 26.0742C42.0412 27.8284 42.6668 29.8907 42.6668 32.0003C42.6668 34.8293 41.5429 37.5424 39.5426 39.5428C37.5422 41.5432 34.8291 42.667 32.0001 42.667Z" fill="#1E40AF"/>
</svg>
