<svg width="64" height="64" viewBox="0 0 64 64" fill="none" xmlns="http://www.w3.org/2000/svg">
<rect width="64" height="64" rx="32" fill="#F3F4F6"/>
<path d="M32.0001 37.3334C31.7364 37.3334 31.4786 37.4116 31.2594 37.5581C31.0401 37.7046 30.8692 37.9128 30.7683 38.1565C30.6674 38.4001 30.641 38.6682 30.6924 38.9268C30.7439 39.1855 30.8708 39.423 31.0573 39.6095C31.2438 39.796 31.4814 39.923 31.74 39.9744C31.9986 40.0259 32.2667 39.9995 32.5104 39.8985C32.754 39.7976 32.9622 39.6267 33.1087 39.4075C33.2553 39.1882 33.3335 38.9304 33.3335 38.6667C33.3335 38.3131 33.193 37.9739 32.9429 37.7239C32.6929 37.4738 32.3537 37.3334 32.0001 37.3334ZM46.2268 39.2934L35.4935 20.6267C35.1465 20.0047 34.6398 19.4866 34.0257 19.126C33.4116 18.7653 32.7123 18.5752 32.0001 18.5752C31.2879 18.5752 30.5887 18.7653 29.9745 19.126C29.3604 19.4866 28.8537 20.0047 28.5068 20.6267L17.8401 39.2934C17.4812 39.8987 17.2883 40.5881 17.281 41.2918C17.2736 41.9955 17.4521 42.6887 17.7984 43.3014C18.1446 43.9141 18.6464 44.4246 19.253 44.7814C19.8597 45.1382 20.5497 45.3286 21.2535 45.3334H42.7468C43.4562 45.3404 44.1547 45.1586 44.7707 44.8066C45.3866 44.4546 45.8979 43.9452 46.2521 43.3305C46.6063 42.7158 46.7906 42.0179 46.7861 41.3085C46.7817 40.5991 46.5886 39.9036 46.2268 39.2934V39.2934ZM43.9201 41.96C43.8033 42.168 43.6327 42.3407 43.4264 42.4604C43.22 42.58 42.9853 42.642 42.7468 42.64H21.2535C21.0149 42.642 20.7803 42.58 20.5739 42.4604C20.3675 42.3407 20.197 42.168 20.0801 41.96C19.9631 41.7573 19.9015 41.5274 19.9015 41.2934C19.9015 41.0593 19.9631 40.8294 20.0801 40.6267L30.7468 21.96C30.8587 21.7416 31.0287 21.5583 31.238 21.4304C31.4474 21.3024 31.6881 21.2347 31.9335 21.2347C32.1788 21.2347 32.4195 21.3024 32.6289 21.4304C32.8382 21.5583 33.0082 21.7416 33.1201 21.96L43.8535 40.6267C43.9857 40.8265 44.0618 41.0582 44.0735 41.2976C44.0852 41.5369 44.0322 41.7749 43.9201 41.9867V41.96ZM32.0001 26.6667C31.6465 26.6667 31.3074 26.8072 31.0573 27.0572C30.8073 27.3073 30.6668 27.6464 30.6668 28V33.3334C30.6668 33.687 30.8073 34.0261 31.0573 34.2762C31.3074 34.5262 31.6465 34.6667 32.0001 34.6667C32.3537 34.6667 32.6929 34.5262 32.9429 34.2762C33.193 34.0261 33.3335 33.687 33.3335 33.3334V28C33.3335 27.6464 33.193 27.3073 32.9429 27.0572C32.6929 26.8072 32.3537 26.6667 32.0001 26.6667Z" fill="#991B1B"/>
</svg>
