<svg width="20" height="20" viewBox="0 0 20 20" fill="none" xmlns="http://www.w3.org/2000/svg">
<path d="M15.8334 1.66699H4.16675C3.50371 1.66699 2.86782 1.93038 2.39898 2.39923C1.93014 2.86807 1.66675 3.50395 1.66675 4.16699V5.14199C1.66663 5.48611 1.73755 5.82655 1.87508 6.14199V6.19199C1.99281 6.45947 2.15957 6.70254 2.36675 6.90866L7.50008 12.0087V17.5003C7.4998 17.6419 7.53561 17.7813 7.60414 17.9052C7.67267 18.0292 7.77165 18.1336 7.89175 18.2087C8.02437 18.2909 8.17739 18.3342 8.33341 18.3337C8.46387 18.3329 8.59231 18.3015 8.70841 18.242L12.0417 16.5753C12.1792 16.5061 12.2947 16.4001 12.3756 16.2692C12.4565 16.1383 12.4996 15.9875 12.5001 15.8337V12.0087L17.6001 6.90866C17.8073 6.70254 17.974 6.45947 18.0917 6.19199V6.14199C18.2408 5.82902 18.3231 5.48848 18.3334 5.14199V4.16699C18.3334 3.50395 18.07 2.86807 17.6012 2.39923C17.1323 1.93038 16.4965 1.66699 15.8334 1.66699ZM11.0751 11.0753C10.9978 11.1532 10.9367 11.2455 10.8953 11.3471C10.8538 11.4486 10.8328 11.5573 10.8334 11.667V15.317L9.16675 16.1503V11.667C9.16738 11.5573 9.14636 11.4486 9.10489 11.3471C9.06342 11.2455 9.00232 11.1532 8.92508 11.0753L4.50841 6.66699H15.4917L11.0751 11.0753ZM16.6667 5.00033H3.33341V4.16699C3.33341 3.94598 3.42121 3.73402 3.57749 3.57774C3.73377 3.42146 3.94573 3.33366 4.16675 3.33366H15.8334C16.0544 3.33366 16.2664 3.42146 16.4227 3.57774C16.579 3.73402 16.6667 3.94598 16.6667 4.16699V5.00033Z" fill="#6D7175"/>
</svg>
