<svg width="64" height="64" viewBox="0 0 64 64" fill="none" xmlns="http://www.w3.org/2000/svg">
<rect width="64" height="64" rx="32" fill="#F3F4F6"/>
<path d="M39.7243 29.2416C42.4667 29.2416 44.6898 27.0184 44.6898 24.2761C44.6898 21.5337 42.4667 19.3105 39.7243 19.3105C36.9819 19.3105 34.7588 21.5337 34.7588 24.2761C34.7588 27.0184 36.9819 29.2416 39.7243 29.2416Z" fill="#92400E"/>
<path d="M32.5519 23.7246H21.5174C20.9321 23.7246 20.3708 23.9571 19.9569 24.371C19.5431 24.7849 19.3105 25.3462 19.3105 25.9315V42.4832C19.3105 43.0685 19.5431 43.6299 19.9569 44.0437C20.3708 44.4576 20.9321 44.6901 21.5174 44.6901H38.0692C38.6545 44.6901 39.2158 44.4576 39.6297 44.0437C40.0436 43.6299 40.2761 43.0685 40.2761 42.4832V31.4487" stroke="#92400E" stroke-width="2" stroke-miterlimit="10"/>
</svg>
