<svg width="64" height="64" viewBox="0 0 64 64" fill="none" xmlns="http://www.w3.org/2000/svg">
<rect width="64" height="64" rx="32" fill="#F3F4F6"/>
<path d="M36.9468 27.0534C36.8228 26.9285 36.6754 26.8293 36.5129 26.7616C36.3504 26.6939 36.1761 26.659 36.0001 26.659C35.8241 26.659 35.6498 26.6939 35.4873 26.7616C35.3249 26.8293 35.1774 26.9285 35.0534 27.0534L32.0001 30.1201L28.9468 27.0534C28.6957 26.8024 28.3552 26.6613 28.0001 26.6613C27.645 26.6613 27.3045 26.8024 27.0534 27.0534C26.8024 27.3045 26.6613 27.645 26.6613 28.0001C26.6613 28.3552 26.8024 28.6957 27.0534 28.9468L30.1201 32.0001L27.0534 35.0534C26.9285 35.1774 26.8293 35.3249 26.7616 35.4873C26.6939 35.6498 26.659 35.8241 26.659 36.0001C26.659 36.1761 26.6939 36.3504 26.7616 36.5129C26.8293 36.6754 26.9285 36.8228 27.0534 36.9468C27.1774 37.0717 27.3249 37.1709 27.4873 37.2386C27.6498 37.3063 27.8241 37.3412 28.0001 37.3412C28.1761 37.3412 28.3504 37.3063 28.5129 37.2386C28.6754 37.1709 28.8228 37.0717 28.9468 36.9468L32.0001 33.8801L35.0534 36.9468C35.1774 37.0717 35.3249 37.1709 35.4873 37.2386C35.6498 37.3063 35.8241 37.3412 36.0001 37.3412C36.1761 37.3412 36.3504 37.3063 36.5129 37.2386C36.6754 37.1709 36.8228 37.0717 36.9468 36.9468C37.0717 36.8228 37.1709 36.6754 37.2386 36.5129C37.3063 36.3504 37.3412 36.1761 37.3412 36.0001C37.3412 35.8241 37.3063 35.6498 37.2386 35.4873C37.1709 35.3249 37.0717 35.1774 36.9468 35.0534L33.8801 32.0001L36.9468 28.9468C37.0717 28.8228 37.1709 28.6754 37.2386 28.5129C37.3063 28.3504 37.3412 28.1761 37.3412 28.0001C37.3412 27.8241 37.3063 27.6498 37.2386 27.4873C37.1709 27.3249 37.0717 27.1774 36.9468 27.0534ZM41.4268 22.5734C40.1968 21.3 38.7256 20.2842 37.0988 19.5854C35.4721 18.8866 33.7225 18.5188 31.9521 18.5034C30.1817 18.488 28.426 18.8254 26.7874 19.4958C25.1488 20.1662 23.6601 21.1563 22.4082 22.4082C21.1563 23.6601 20.1662 25.1488 19.4958 26.7874C18.8254 28.426 18.488 30.1817 18.5034 31.9521C18.5188 33.7225 18.8866 35.4721 19.5854 37.0988C20.2842 38.7256 21.3 40.1968 22.5734 41.4268C23.8034 42.7002 25.2747 43.716 26.9014 44.4148C28.5281 45.1136 30.2777 45.4814 32.0481 45.4968C33.8185 45.5122 35.5742 45.1748 37.2128 44.5044C38.8514 43.834 40.3401 42.8439 41.592 41.592C42.8439 40.3401 43.834 38.8514 44.5044 37.2128C45.1748 35.5742 45.5122 33.8185 45.4968 32.0481C45.4814 30.2777 45.1136 28.5281 44.4148 26.9014C43.716 25.2747 42.7002 23.8034 41.4268 22.5734ZM39.5468 39.5468C37.8028 41.2927 35.5075 42.3799 33.0518 42.6232C30.5962 42.8665 28.1321 42.2509 26.0795 40.8811C24.0268 39.5114 22.5126 37.4724 21.7947 35.1114C21.0769 32.7505 21.1998 30.2136 22.1427 27.9332C23.0855 25.6527 24.7898 23.7696 26.9653 22.6049C29.1408 21.4401 31.6528 21.0656 34.0734 21.5453C36.4941 22.0249 38.6735 23.329 40.2404 25.2354C41.8074 27.1417 42.6648 29.5324 42.6668 32.0001C42.6715 33.4018 42.3982 34.7906 41.8627 36.086C41.3271 37.3813 40.54 38.5576 39.5468 39.5468Z" fill="#065F46"/>
</svg>
