<svg width="25" height="24" viewBox="0 0 25 24" fill="none" xmlns="http://www.w3.org/2000/svg">
<g clip-path="url(#clip0_634_25311)">
<path d="M9.3501 15.375L10.5501 8.625H12.4251L11.2626 15.375H9.3501Z" fill="#3C58BF"/>
<path d="M9.3501 15.375L10.8876 8.625H12.4251L11.2626 15.375H9.3501Z" fill="#293688"/>
<path d="M18.05 8.70039C17.675 8.55039 17.075 8.40039 16.325 8.40039C14.45 8.40039 13.1 9.33789 13.1 10.6879C13.1 11.7004 14.0375 12.2254 14.7875 12.5629C15.5375 12.9004 15.7625 13.1254 15.7625 13.4254C15.7625 13.8754 15.1625 14.1004 14.6375 14.1004C13.8875 14.1004 13.475 13.9879 12.8375 13.7254L12.575 13.6129L12.3125 15.1504C12.7625 15.3379 13.5875 15.5254 14.45 15.5254C16.4375 15.5254 17.75 14.5879 17.75 13.1629C17.75 12.3754 17.2625 11.7754 16.1375 11.2879C15.4625 10.9504 15.05 10.7629 15.05 10.4254C15.05 10.1254 15.3875 9.82539 16.1375 9.82539C16.775 9.82539 17.225 9.93789 17.5625 10.0879L17.75 10.1629L18.05 8.70039Z" fill="#3C58BF"/>
<path d="M18.05 8.70039C17.675 8.55039 17.075 8.40039 16.325 8.40039C14.45 8.40039 13.4375 9.33789 13.4375 10.6879C13.4375 11.7004 14.0375 12.2254 14.7875 12.5629C15.5375 12.9004 15.7625 13.1254 15.7625 13.4254C15.7625 13.8754 15.1625 14.1004 14.6375 14.1004C13.8875 14.1004 13.475 13.9879 12.8375 13.7254L12.575 13.6129L12.3125 15.1504C12.7625 15.3379 13.5875 15.5254 14.45 15.5254C16.4375 15.5254 17.75 14.5879 17.75 13.1629C17.75 12.3754 17.2625 11.7754 16.1375 11.2879C15.4625 10.9504 15.05 10.7629 15.05 10.4254C15.05 10.1254 15.3875 9.82539 16.1375 9.82539C16.775 9.82539 17.225 9.93789 17.5625 10.0879L17.75 10.1629L18.05 8.70039Z" fill="#293688"/>
<path d="M21.2748 8.625C20.8248 8.625 20.4873 8.6625 20.2998 9.1125L17.4873 15.375H19.5123L19.8873 14.25H22.2873L22.5123 15.375H24.3123L22.7373 8.625H21.2748ZM20.4123 13.125C20.5248 12.7875 21.1623 11.1375 21.1623 11.1375C21.1623 11.1375 21.3123 10.725 21.4248 10.4625L21.5373 11.1C21.5373 11.1 21.9123 12.7875 21.9873 13.1625H20.4123V13.125Z" fill="#3C58BF"/>
<path d="M21.7248 8.625C21.2748 8.625 20.9373 8.6625 20.7498 9.1125L17.4873 15.375H19.5123L19.8873 14.25H22.2873L22.5123 15.375H24.3123L22.7373 8.625H21.7248ZM20.4123 13.125C20.5623 12.75 21.1623 11.1375 21.1623 11.1375C21.1623 11.1375 21.3123 10.725 21.4248 10.4625L21.5373 11.1C21.5373 11.1 21.9123 12.7875 21.9873 13.1625H20.4123V13.125Z" fill="#293688"/>
<path d="M5.8999 13.3496L5.7124 12.3746C5.3749 11.2496 4.2874 10.0121 3.0874 9.41211L4.7749 15.4121H6.7999L9.8374 8.66211H7.8124L5.8999 13.3496Z" fill="#3C58BF"/>
<path d="M5.8999 13.3496L5.7124 12.3746C5.3749 11.2496 4.2874 10.0121 3.0874 9.41211L4.7749 15.4121H6.7999L9.8374 8.66211H8.1874L5.8999 13.3496Z" fill="#293688"/>
<path d="M0.6875 8.625L1.025 8.7C3.425 9.2625 5.075 10.6875 5.7125 12.375L5.0375 9.1875C4.925 8.7375 4.5875 8.625 4.175 8.625H0.6875Z" fill="#FFBC00"/>
<path d="M0.6875 8.625C3.0875 9.1875 5.075 10.65 5.7125 12.3375L5.075 9.675C4.9625 9.225 4.5875 8.9625 4.175 8.9625L0.6875 8.625Z" fill="#F7981D"/>
<path d="M0.6875 8.625C3.0875 9.1875 5.075 10.65 5.7125 12.3375L5.2625 10.875C5.15 10.425 5 9.975 4.475 9.7875L0.6875 8.625Z" fill="#ED7C00"/>
<path d="M7.775 13.125L6.5 11.85L5.9 13.275L5.75 12.3375C5.4125 11.2125 4.325 9.975 3.125 9.375L4.8125 15.375H6.8375L7.775 13.125ZM11.2625 15.375L9.65 13.725L9.35 15.375H11.2625ZM15.575 13.05C15.725 13.2 15.8 13.3125 15.7625 13.4625C15.7625 13.9125 15.1625 14.1375 14.6375 14.1375C13.8875 14.1375 13.475 14.025 12.8375 13.7625L12.575 13.65L12.3125 15.1875C12.7625 15.375 13.5875 15.5625 14.45 15.5625C15.65 15.5625 16.625 15.225 17.1875 14.625L15.575 13.05ZM17.75 15.375H19.5125L19.8875 14.25H22.2875L22.5125 15.375H24.3125L23.675 12.6375L21.425 10.4625L21.5375 11.0625C21.5375 11.0625 21.9125 12.75 21.9875 13.125H20.4125C20.5625 12.75 21.1625 11.1375 21.1625 11.1375C21.1625 11.1375 21.3125 10.725 21.425 10.4625" fill="#051244"/>
</g>
<defs>
<clipPath id="clip0_634_25311">
<rect width="24" height="24" fill="white" transform="translate(0.5)"/>
</clipPath>
</defs>
</svg>
